<svg xmlns="http://www.w3.org/2000/svg" width="75" height="75" viewBox="0 0 75 75">
  <g fill="none" fill-rule="nonzero">
    <circle cx="37" cy="38" r="36" fill="#FF0068"/>
    <path stroke="#FFF" stroke-linejoin="round" stroke-width="1.5" d="M26.582069,32.4200001 C24.6037469,32.4200001 23,30.7589765 23,28.71 C23,26.6610236 24.6037469,25 26.582069,25 L47.417931,25 C49.3962531,25 51,26.6610236 51,28.71 C51,30.7589765 49.3962531,32.4200001 47.417931,32.4200001 M32.5,20 L32.5,16 C32.5,13.790861 34.290861,12 36.5,12 L37.5,12 C39.709139,12 41.5,13.790861 41.5,16 L41.5,20 M45.25,25 C45.25,22.2385763 43.2352814,20 40.75,20 M33.25,20 C30.7647186,20 28.75,22.2385763 28.75,25 M26,32.4200001 L48.1800003,32.4200001 L48.1800003,60.5499992 C48.1800003,62.7591382 46.3891393,64.5499992 44.1800003,64.5499992 L30,64.5499992 C27.790861,64.5499992 26,62.7591382 26,60.5499992 L26,32.4200001 Z"/>
  </g>
</svg>
