<svg xmlns="http://www.w3.org/2000/svg" width="75" height="75" viewBox="0 0 75 75">
  <g fill="none" fill-rule="nonzero">
    <circle cx="38" cy="38" r="36" fill="#FF0068"/>
    <g stroke="#FFF" stroke-width="1.5" transform="translate(16 16)">
      <path stroke-linecap="round" stroke-linejoin="round" d="M0.5,0.5 C0.5,10.3482197 8.09575323,22.5 22,22.5 C35.9042468,22.5 44,10 43.5,0.5"/>
      <path stroke-linecap="round" stroke-linejoin="round" d="M28,21 C28,19.3431458 25.3137085,17.5 22,17.5 C18.6862915,17.5 16,19.3431458 16,21"/>
      <path d="M19 22.5C19 23.8807119 20.3431458 25 22 25 23.6568542 25 25 23.8807119 25 22.5M22 44C24.7614237 44 26 41.9852814 26 39.5 26 38.1988072 24.719821 35.8364748 24 33.8394747 23.3449612 32.0221999 23.3156539 30.5 22 30.5 20.6738908 30.5 20.2750699 32.0024088 19.5 33.8394747 18.6611029 35.8278234 17.5 38.2082169 17.5 39.5 17.5 41.9852814 19.2385763 44 22 44z"/>
    </g>
  </g>
</svg>
