<svg xmlns="http://www.w3.org/2000/svg" width="82" height="82" style="background:#fff" viewBox="0 0 82 82">
  <g fill="none" fill-rule="evenodd">
    <g stroke="#FF0068" stroke-width="1.5" transform="translate(23 35)">
      <path d="M5.01056331,4.53045255 C9.12941306,2.47984782 14.2715245,1.45454545 20.4368976,1.45454545 C25.8511195,1.45454545 30.4762268,2.24523379 34.3122195,3.82661046 L34.3122168,3.8266169 C37.7441072,5.24140361 39.9834985,8.58680384 39.9834985,12.2988778 C39.9834985,12.2988778 39.9834985,12.2988778 39.9834985,12.2988778 C39.9834985,13.2660194 39.8945249,14.7873408 39.7165777,16.862842 C39.7165777,19.6791325 38.7830266,22.3080066 36.9159244,24.7494641 C35.0488222,27.1909217 33.0645352,28.849628 30.9630635,29.7255832 C27.4515293,31.2418611 23.9428074,32 20.4368976,32 C16.9956329,32 13.5571805,31.2418611 10.1215402,29.7255832 C7.19502184,28.2960535 5.07122924,26.6373471 3.75016245,24.7494641 C2.42909567,22.8615811 1.44366913,20.2327071 0.793882841,16.862842 C0.909684235,14.8291552 0.909684235,13.3078338 0.793882841,12.2988778 C0.793882841,12.2988778 0.793882841,12.2988778 0.793882841,12.2988778 L0.793882841,12.2988778 C0.424444473,9.08003016 2.11015008,5.97442902 5.01055566,4.53043718 Z"/>
      <path d="M10.6149302 29.8181818C10.559742 20.0538942 11.355236 12.826289 13.0014123 8.13536626 14.3854748 4.1913597 16.4473107 1.58873111 19.1869199.327480501 20.1698692-.125045889 21.3157119-.107754436 22.2835067.374209821 26.1241356 2.28685279 28.5808097 6.01251389 29.6535289 11.5511931 30.8570952 17.7654647 31.2658372 23.8544609 30.8797548 29.8181818M.816326531 18.1818182C1.27231556 16.9156425 1.60163676 16.0992346 1.80429014 15.7325947 2.23421705 14.9547722 2.76660608 14.8036625 3.03476819 14.7166931 6.11410469 13.7180128 10.6122449 17.4136512 10.6122449 17.4136512"/>
      <path d="M30.2040816,18.9090909 C30.6600707,17.6429152 30.9893919,16.8265074 31.1920452,16.4598674 C31.6219722,15.6820449 32.1543612,15.5309353 32.4225233,15.4439658 C35.5018598,14.4452855 40,18.1409239 40,18.1409239" transform="matrix(-1 0 0 1 70.204 0)"/>
    </g>
    <g stroke="#FF0068" stroke-linecap="round" stroke-linejoin="round" stroke-width="1.5" transform="translate(32 13)">
      <path d="M1.5241993 4C.647122737 4.88775533.208584453 5.69728732.208584453 6.42859598.208584453 7.97535225 1.80300236 9.23535963 1.94509663 9.92095918 2.36870416 11.9648496.208584453 12.4720812 0 13.9113686 3.16150869e-14 15.8343898 1.5241993 17 1.5241993 17M11.5241993 0C10.6471227.887755328 10.2085845 1.69728732 10.2085845 2.42859598 10.2085845 3.97535225 11.8030024 5.23535963 11.9450966 5.92095918 12.3687042 7.96484965 10.2085845 8.47208115 10 9.91136864 10 11.8343898 11.5241993 13 11.5241993 13M21.5241993 4C20.6471227 4.88775533 20.2085845 5.69728732 20.2085845 6.42859598 20.2085845 7.97535225 21.8030024 9.23535963 21.9450966 9.92095918 22.3687042 11.9648496 20.2085845 12.4720812 20 13.9113686 20 15.8343898 21.5241993 17 21.5241993 17"/>
    </g>
    <circle cx="42.5" cy="41.5" r="37.5" stroke="#FF0068" stroke-width="1.5"/>
  </g>
</svg>
